{"asset":{"version":"2.0","generator":"Unity 2021.3.26f1 glTFast 6.0.1"},"nodes":[{"name":"Pod_001","mesh":0,"translation":[-3.79235077,1.17035174,4.538809],"rotation":[-0.0144040855,-0.706960142,-0.70696,0.0144040827],"scale":[1,1.00000024,1]}],"buffers":[{"uri":"Pod_001.bin","byteLength":22224}],"bufferViews":[{"buffer":0,"byteLength":1488},{"buffer":0,"byteLength":20736,"byteOffset":1488,"byteStride":48}],"accessors":[{"bufferView":1,"componentType":5126,"count":432,"type":"VEC3","max":[0.49999997,0.5,2.12500024],"min":[-0.625682354,-0.49999997,0]},{"bufferView":1,"componentType":5126,"count":432,"type":"VEC3","byteOffset":12},{"bufferView":1,"componentType":5126,"count":432,"type":"VEC4","byteOffset":24},{"bufferView":1,"componentType":5126,"count":432,"type":"VEC2","byteOffset":40},{"bufferView":0,"componentType":5123,"count":612,"type":"SCALAR"},{"bufferView":0,"componentType":5123,"count":132,"type":"SCALAR","byteOffset":1224}],"materials":[{"name":"Pod_001","pbrMetallicRoughness":{"baseColorFactor":[0.315999955,0.1849756,0.290308952,1],"metallicFactor":0.608999968,"roughnessFactor":0.684}},{"name":"Pod_002","pbrMetallicRoughness":{"baseColorFactor":[0.05590392,0.249692619,0.345588118,0.709],"metallicFactor":0,"roughnessFactor":0.204},"alphaMode":"BLEND"}],"meshes":[{"name":"Pod_001","primitives":[{"attributes":{"POSITION":0,"NORMAL":1,"TANGENT":2,"TEXCOORD_1":3},"indices":4,"material":0},{"attributes":{"POSITION":0,"NORMAL":1,"TANGENT":2,"TEXCOORD_1":3},"indices":5,"material":1}]}],"scene":0,"scenes":[{"name":"Pod_001","nodes":[0]}]}